<svg width="708" height="83" viewBox="0 0 708 83" fill="none" xmlns="http://www.w3.org/2000/svg">
<g opacity="0.7">
<mask id="path-1-outside-1_20_31" maskUnits="userSpaceOnUse" x="-5" y="-5" width="719" height="163" fill="black">
<rect fill="white" x="-5" y="-5" width="719" height="163"/>
<path d="M84.2 27.8H53.8V152L38 150.6L34.4 152.2L30.6 152V109.8L30.2 108L31 106.8L29.4 89L28.6 88L30.6 83.2V27.8H0.4V3H83.8V7.6L83.2 9.4L84.2 11.4V27.8ZM177.373 103.8L175.573 107.2V149H152.173L147.973 138.6V92.6L128.973 93.8H123.173L122.773 94.2L123.373 97.8V99.4L125.173 100.2L123.373 102V103.4L124.573 104.2L123.573 106L122.973 120.4L123.973 134.6L123.373 136.2V147.6L122.173 149H99.5734L95.5734 143.8L93.9734 140.2L96.3734 138.2V132.6L94.5734 131.4L96.9734 126.6L95.1734 124.2L95.3734 121L96.9734 114L95.3734 108.6V54.6L96.3734 54L95.5734 52.4V37.4L96.5734 31.2V9.99999L95.1734 2.39999L96.3734 1.2H121.973L126.373 57.2L125.173 57.8L125.373 61.2L124.573 61.8L126.173 65.2L139.973 64.4L149.173 62.8L148.373 59.4V20.6L147.373 1.2H171.773L173.173 6.6V15L171.973 17.6L172.773 23.6L175.573 35.6L174.573 36L173.773 37.2L175.973 53.4L176.773 54.6L176.573 56L175.573 57.2L177.373 64.4V98.4L176.973 100.4L175.973 101.4L176.573 102L177.373 103.8ZM258.453 149.8L250.653 149.4L247.653 150L245.853 148.8L238.053 150H188.053V141L186.453 134V3.39999L184.653 2.59999H252.853L257.053 4.19999V25.4L253.853 24H215.453L207.253 24.4L206.053 25.6V39.6L207.053 47.2V61L208.653 62.4H228.653L241.653 61L242.053 69.6L241.253 70.4L242.253 84.6H206.053L208.453 97.6V114L207.853 120.4L208.653 129H258.453V149.8ZM311.844 147V56.6L308.244 53.4L308.844 51V38L310.644 22V4.59999L310.244 0.399995L325.044 1.39999H373.044V64.8L387.844 64.2L388.844 65.4V147H311.844ZM365.644 126.6L364.244 108.8V86.2L346.844 87.8H333.644L333.044 91.4V126.6L337.444 127.2H355.044L365.644 126.6ZM350.844 22.4H333.244V50.8L332.644 51.2V53.6L333.844 56.2L332.644 58L333.844 60.8L332.044 62.6L333.844 63.2L333.644 65.8H352.044V24.8L350.844 22.4ZM403.389 133.2V127L401.589 124.2L402.989 122.2V96.2L400.789 94.8L401.789 93.8V83.6L400.389 81.6L401.389 76.2V2.2H477.589V6.99999L480.189 18.2V23.6L479.589 25L482.989 55.2L482.389 56.2L480.989 57L468.589 56.2H463.389L461.989 57.6L466.789 80.6L475.189 113.4L477.189 124L476.589 124.8L477.989 126.2L479.389 134.4L478.989 137.2L480.789 139.2L482.389 150.2H461.989L452.789 123.4L449.989 113.6L441.589 74L438.589 57.2H423.189L426.389 100.8V117.2L426.989 130.8L424.989 149L405.389 149.8L403.589 148L403.389 144.6V133.2ZM459.589 37.4L459.189 31.6L459.589 24.4H422.389L423.589 30.4V34.6L422.389 37.4H459.589ZM403.389 144.4L403.189 144.6V144.2L403.389 144.4ZM524.544 112.2L522.944 118V142.4L521.744 142.2V149.6L522.544 150.2H497.144L494.544 140.6L495.744 137.8V124.8L494.544 90L495.344 88.4V70.2L493.944 68.2L495.144 66.2L494.544 57.8L495.144 44.6L495.744 43.8L494.544 43L494.944 38.8L496.144 36.6L494.544 34.6L495.744 30.8V8.6L497.144 1.2H513.744L520.144 0.599992L522.944 24.6V89.8L523.544 104L523.144 111.4L524.544 112.2ZM617.075 27.8H586.675V152L570.875 150.6L567.275 152.2L563.475 152V109.8L563.075 108L563.875 106.8L562.275 89L561.475 88L563.475 83.2V27.8H533.275V3H616.675V7.6L616.075 9.4L617.075 11.4V27.8ZM707.448 121L704.648 134.2V139L706.248 141.6L705.448 148.4L690.448 147.6L688.448 148H630.648L629.248 143.8L627.848 131.2V88.4L628.648 87.2L637.048 86.8H650.048V96.2L651.448 98.2L650.248 99.2V117.4L649.648 119L650.648 127.6H685.648L683.448 92L627.248 65.2V2.59999H658.848L659.848 1.79999L663.248 2.2L664.048 3L670.448 1.79999L671.448 3L677.648 1.39999L680.848 1.59999L681.448 2.59999L696.648 1.39999L697.648 2.59999L702.248 4L703.048 12.8L701.848 13.4L704.248 16.8V22.4L703.448 23.8L704.848 26.4V60.8L684.648 59L682.848 52.6V25.8L679.248 25.4L669.848 26H647.848V33.8L649.048 35.8L648.248 38V42.8L649.048 43.6L648.448 45.4V49.6L651.048 51.6L697.248 75.6V77.2L706.248 81.2V82.6L705.248 83.2L706.448 111.8L705.248 117.6L706.648 118.4L706.848 120.6L707.448 121Z"/>
</mask>
<path d="M84.2 27.8H53.8V152L38 150.6L34.4 152.2L30.6 152V109.8L30.2 108L31 106.8L29.4 89L28.6 88L30.6 83.2V27.8H0.4V3H83.8V7.6L83.2 9.4L84.2 11.4V27.8ZM177.373 103.8L175.573 107.2V149H152.173L147.973 138.6V92.6L128.973 93.8H123.173L122.773 94.2L123.373 97.8V99.4L125.173 100.2L123.373 102V103.4L124.573 104.2L123.573 106L122.973 120.4L123.973 134.6L123.373 136.2V147.6L122.173 149H99.5734L95.5734 143.8L93.9734 140.2L96.3734 138.2V132.6L94.5734 131.4L96.9734 126.6L95.1734 124.2L95.3734 121L96.9734 114L95.3734 108.6V54.6L96.3734 54L95.5734 52.4V37.4L96.5734 31.2V9.99999L95.1734 2.39999L96.3734 1.2H121.973L126.373 57.2L125.173 57.8L125.373 61.2L124.573 61.8L126.173 65.2L139.973 64.4L149.173 62.8L148.373 59.4V20.6L147.373 1.2H171.773L173.173 6.6V15L171.973 17.6L172.773 23.6L175.573 35.6L174.573 36L173.773 37.2L175.973 53.4L176.773 54.6L176.573 56L175.573 57.2L177.373 64.4V98.4L176.973 100.4L175.973 101.4L176.573 102L177.373 103.8ZM258.453 149.8L250.653 149.4L247.653 150L245.853 148.8L238.053 150H188.053V141L186.453 134V3.39999L184.653 2.59999H252.853L257.053 4.19999V25.4L253.853 24H215.453L207.253 24.4L206.053 25.6V39.6L207.053 47.2V61L208.653 62.4H228.653L241.653 61L242.053 69.6L241.253 70.4L242.253 84.6H206.053L208.453 97.6V114L207.853 120.4L208.653 129H258.453V149.8ZM311.844 147V56.6L308.244 53.4L308.844 51V38L310.644 22V4.59999L310.244 0.399995L325.044 1.39999H373.044V64.8L387.844 64.2L388.844 65.4V147H311.844ZM365.644 126.6L364.244 108.8V86.2L346.844 87.8H333.644L333.044 91.4V126.6L337.444 127.2H355.044L365.644 126.6ZM350.844 22.4H333.244V50.8L332.644 51.2V53.6L333.844 56.2L332.644 58L333.844 60.8L332.044 62.6L333.844 63.2L333.644 65.8H352.044V24.8L350.844 22.4ZM403.389 133.2V127L401.589 124.2L402.989 122.2V96.2L400.789 94.8L401.789 93.8V83.6L400.389 81.6L401.389 76.2V2.2H477.589V6.99999L480.189 18.2V23.6L479.589 25L482.989 55.2L482.389 56.2L480.989 57L468.589 56.2H463.389L461.989 57.6L466.789 80.6L475.189 113.4L477.189 124L476.589 124.8L477.989 126.2L479.389 134.4L478.989 137.2L480.789 139.2L482.389 150.2H461.989L452.789 123.4L449.989 113.6L441.589 74L438.589 57.2H423.189L426.389 100.8V117.2L426.989 130.8L424.989 149L405.389 149.8L403.589 148L403.389 144.6V133.2ZM459.589 37.4L459.189 31.6L459.589 24.4H422.389L423.589 30.4V34.6L422.389 37.4H459.589ZM403.389 144.4L403.189 144.6V144.2L403.389 144.4ZM524.544 112.2L522.944 118V142.4L521.744 142.2V149.6L522.544 150.2H497.144L494.544 140.6L495.744 137.8V124.8L494.544 90L495.344 88.4V70.2L493.944 68.2L495.144 66.2L494.544 57.8L495.144 44.6L495.744 43.8L494.544 43L494.944 38.8L496.144 36.6L494.544 34.6L495.744 30.8V8.6L497.144 1.2H513.744L520.144 0.599992L522.944 24.6V89.8L523.544 104L523.144 111.4L524.544 112.2ZM617.075 27.8H586.675V152L570.875 150.6L567.275 152.2L563.475 152V109.8L563.075 108L563.875 106.8L562.275 89L561.475 88L563.475 83.2V27.8H533.275V3H616.675V7.6L616.075 9.4L617.075 11.4V27.8ZM707.448 121L704.648 134.2V139L706.248 141.6L705.448 148.4L690.448 147.6L688.448 148H630.648L629.248 143.8L627.848 131.2V88.4L628.648 87.2L637.048 86.8H650.048V96.2L651.448 98.2L650.248 99.2V117.4L649.648 119L650.648 127.6H685.648L683.448 92L627.248 65.2V2.59999H658.848L659.848 1.79999L663.248 2.2L664.048 3L670.448 1.79999L671.448 3L677.648 1.39999L680.848 1.59999L681.448 2.59999L696.648 1.39999L697.648 2.59999L702.248 4L703.048 12.8L701.848 13.4L704.248 16.8V22.4L703.448 23.8L704.848 26.4V60.8L684.648 59L682.848 52.6V25.8L679.248 25.4L669.848 26H647.848V33.8L649.048 35.8L648.248 38V42.8L649.048 43.6L648.448 45.4V49.6L651.048 51.6L697.248 75.6V77.2L706.248 81.2V82.6L705.248 83.2L706.448 111.8L705.248 117.6L706.648 118.4L706.848 120.6L707.448 121Z" fill="white"/>
<path d="M84.2 27.8V32.8H89.2V27.8H84.2ZM53.8 27.8V22.8H48.8V27.8H53.8ZM53.8 152L53.3587 156.98L58.8 157.463V152H53.8ZM38 150.6L38.4413 145.62L37.1521 145.505L35.9693 146.031L38 150.6ZM34.4 152.2L34.1372 157.193L35.3348 157.256L36.4307 156.769L34.4 152.2ZM30.6 152H25.6V156.744L30.3372 156.993L30.6 152ZM30.6 109.8H35.6V109.251L35.4809 108.715L30.6 109.8ZM30.2 108L26.0398 105.226L24.8562 107.002L25.3191 109.085L30.2 108ZM31 106.8L35.1603 109.574L36.1377 108.107L35.9799 106.352L31 106.8ZM29.4 89L34.3799 88.5524L34.2451 87.0525L33.3043 85.8765L29.4 89ZM28.6 88L23.9846 86.0769L22.8455 88.8108L24.6957 91.1235L28.6 88ZM30.6 83.2L35.2154 85.1231L35.6 84.2V83.2H30.6ZM30.6 27.8H35.6V22.8H30.6V27.8ZM0.400001 27.8H-4.6V32.8H0.400001V27.8ZM0.400001 3V-2H-4.6V3H0.400001ZM83.8 3H88.8V-2H83.8V3ZM83.8 7.6L88.5434 9.18113L88.8 8.41138V7.6H83.8ZM83.2 9.4L78.4566 7.81886L77.8017 9.78365L78.7279 11.6361L83.2 9.4ZM84.2 11.4H89.2V10.2197L88.6721 9.16393L84.2 11.4ZM84.2 22.8H53.8V32.8H84.2V22.8ZM48.8 27.8V152H58.8V27.8H48.8ZM54.2413 147.02L38.4413 145.62L37.5587 155.58L53.3587 156.98L54.2413 147.02ZM35.9693 146.031L32.3693 147.631L36.4307 156.769L40.0307 155.169L35.9693 146.031ZM34.6628 147.207L30.8628 147.007L30.3372 156.993L34.1372 157.193L34.6628 147.207ZM35.6 152V109.8H25.6V152H35.6ZM35.4809 108.715L35.0809 106.915L25.3191 109.085L25.7191 110.885L35.4809 108.715ZM34.3602 110.773L35.1603 109.574L26.8398 104.026L26.0398 105.226L34.3602 110.773ZM35.9799 106.352L34.3799 88.5524L24.4201 89.4476L26.0201 107.248L35.9799 106.352ZM33.3043 85.8765L32.5043 84.8765L24.6957 91.1235L25.4957 92.1235L33.3043 85.8765ZM33.2154 89.9231L35.2154 85.1231L25.9846 81.2769L23.9846 86.0769L33.2154 89.9231ZM35.6 83.2V27.8H25.6V83.2H35.6ZM30.6 22.8H0.400001V32.8H30.6V22.8ZM5.4 27.8V3H-4.6V27.8H5.4ZM0.400001 8H83.8V-2H0.400001V8ZM78.8 3V7.6H88.8V3H78.8ZM79.0566 6.01886L78.4566 7.81886L87.9434 10.9811L88.5434 9.18113L79.0566 6.01886ZM78.7279 11.6361L79.7279 13.6361L88.6721 9.16393L87.6721 7.16393L78.7279 11.6361ZM79.2 11.4V27.8H89.2V11.4H79.2ZM177.373 103.8L181.792 106.139L182.93 103.991L181.943 101.769L177.373 103.8ZM175.573 107.2L171.154 104.861L170.573 105.958V107.2H175.573ZM175.573 149V154H180.573V149H175.573ZM152.173 149L147.537 150.872L148.8 154H152.173V149ZM147.973 138.6H142.973V139.572L143.337 140.472L147.973 138.6ZM147.973 92.6H152.973V87.2742L147.658 87.6099L147.973 92.6ZM128.973 93.8V98.8H129.131L129.289 98.7901L128.973 93.8ZM123.173 93.8V88.8H121.102L119.638 90.2645L123.173 93.8ZM122.773 94.2L119.238 90.6645L117.418 92.4839L117.841 95.022L122.773 94.2ZM123.373 97.8H128.373V97.3862L128.305 96.978L123.373 97.8ZM123.373 99.4H118.373V102.649L121.343 103.969L123.373 99.4ZM125.173 100.2L128.709 103.736L133.857 98.5877L127.204 95.6309L125.173 100.2ZM123.373 102L119.838 98.4645L118.373 99.9289V102H123.373ZM123.373 103.4H118.373V106.076L120.6 107.56L123.373 103.4ZM124.573 104.2L128.944 106.628L131.184 102.597L127.347 100.04L124.573 104.2ZM123.573 106L119.203 103.572L118.627 104.608L118.578 105.792L123.573 106ZM122.973 120.4L117.978 120.192L117.966 120.472L117.986 120.751L122.973 120.4ZM123.973 134.6L128.655 136.356L129.038 135.336L128.961 134.249L123.973 134.6ZM123.373 136.2L118.692 134.444L118.373 135.293V136.2H123.373ZM123.373 147.6L127.17 150.854L128.373 149.45V147.6H123.373ZM122.173 149V154H124.473L125.97 152.254L122.173 149ZM99.5734 149L95.6103 152.049L97.1114 154H99.5734V149ZM95.5734 143.8L91.0044 145.831L91.2466 146.376L91.6103 146.849L95.5734 143.8ZM93.9734 140.2L90.7725 136.359L87.8698 138.778L89.4044 142.231L93.9734 140.2ZM96.3734 138.2L99.5744 142.041L101.373 140.542V138.2H96.3734ZM96.3734 132.6H101.373V129.924L99.1469 128.44L96.3734 132.6ZM94.5734 131.4L90.1013 129.164L88.1273 133.112L91.7999 135.56L94.5734 131.4ZM96.9734 126.6L101.446 128.836L102.828 126.072L100.973 123.6L96.9734 126.6ZM95.1734 124.2L90.1832 123.888L90.0683 125.726L91.1734 127.2L95.1734 124.2ZM95.3734 121L90.4991 119.886L90.4085 120.282L90.3832 120.688L95.3734 121ZM96.9734 114L101.848 115.114L102.14 113.836L101.767 112.58L96.9734 114ZM95.3734 108.6H90.3734V109.325L90.5794 110.02L95.3734 108.6ZM95.3734 54.6L92.801 50.3125L90.3734 51.769V54.6H95.3734ZM96.3734 54L98.9459 58.2875L102.916 55.9053L100.846 51.7639L96.3734 54ZM95.5734 52.4H90.5734V53.5803L91.1013 54.6361L95.5734 52.4ZM95.5734 37.4L90.6372 36.6038L90.5734 36.9994V37.4H95.5734ZM96.5734 31.2L101.51 31.9962L101.573 31.6006V31.2H96.5734ZM96.5734 9.99999H101.573V9.5433L101.491 9.09418L96.5734 9.99999ZM95.1734 2.39999L91.6379 -1.13555L89.7802 0.722126L90.2562 3.30581L95.1734 2.39999ZM96.3734 1.2V-3.8H94.3024L92.8379 -2.33554L96.3734 1.2ZM121.973 1.2L126.958 0.808346L126.596 -3.8H121.973V1.2ZM126.373 57.2L128.609 61.6721L131.622 60.1659L131.358 56.8083L126.373 57.2ZM125.173 57.8L122.937 53.3279L119.988 54.8023L120.182 58.0936L125.173 57.8ZM125.373 61.2L128.373 65.2L130.523 63.5881L130.365 60.9064L125.373 61.2ZM124.573 61.8L121.573 57.8L118.315 60.2438L120.049 63.929L124.573 61.8ZM126.173 65.2L121.649 67.329L123.089 70.3872L126.463 70.1916L126.173 65.2ZM139.973 64.4L140.263 69.3916L140.548 69.3751L140.83 69.326L139.973 64.4ZM149.173 62.8L150.03 67.7261L155.255 66.8173L154.041 61.6548L149.173 62.8ZM148.373 59.4H143.373V59.9803L143.506 60.5452L148.373 59.4ZM148.373 20.6H153.373V20.4712L153.367 20.3426L148.373 20.6ZM147.373 1.2V-3.8H142.109L142.38 1.45739L147.373 1.2ZM171.773 1.2L176.613 -0.0548134L175.642 -3.8H171.773V1.2ZM173.173 6.6H178.173V5.96239L178.013 5.34519L173.173 6.6ZM173.173 15L177.713 17.0953L178.173 16.0982V15H173.173ZM171.973 17.6L167.434 15.5047L166.826 16.8223L167.017 18.2608L171.973 17.6ZM172.773 23.6L167.817 24.2608L167.849 24.5006L167.904 24.7361L172.773 23.6ZM175.573 35.6L177.43 40.2424L181.419 38.6471L180.443 34.4638L175.573 35.6ZM174.573 36L172.717 31.3576L171.275 31.9343L170.413 33.2265L174.573 36ZM173.773 37.2L169.613 34.4265L168.565 35.9995L168.819 37.8728L173.773 37.2ZM175.973 53.4L171.019 54.0728L171.174 55.2147L171.813 56.1735L175.973 53.4ZM176.773 54.6L181.723 55.3071L181.993 53.416L180.934 51.8265L176.773 54.6ZM176.573 56L180.415 59.2009L181.323 58.1113L181.523 56.7071L176.573 56ZM175.573 57.2L171.732 53.9991L170.107 55.9495L170.723 58.4127L175.573 57.2ZM177.373 64.4H182.373V63.7845L182.224 63.1873L177.373 64.4ZM177.373 98.4L182.276 99.3806L182.373 98.8951V98.4H177.373ZM176.973 100.4L180.509 103.936L181.579 102.865L181.876 101.381L176.973 100.4ZM175.973 101.4L172.438 97.8645L168.902 101.4L172.438 104.936L175.973 101.4ZM176.573 102L181.143 99.9693L180.765 99.1209L180.109 98.4645L176.573 102ZM172.954 101.461L171.154 104.861L179.992 109.539L181.792 106.139L172.954 101.461ZM170.573 107.2V149H180.573V107.2H170.573ZM175.573 144H152.173V154H175.573V144ZM156.81 147.128L152.61 136.728L143.337 140.472L147.537 150.872L156.81 147.128ZM152.973 138.6V92.6H142.973V138.6H152.973ZM147.658 87.6099L128.658 88.8099L129.289 98.7901L148.289 97.5901L147.658 87.6099ZM128.973 88.8H123.173V98.8H128.973V88.8ZM119.638 90.2645L119.238 90.6645L126.309 97.7355L126.709 97.3355L119.638 90.2645ZM117.841 95.022L118.441 98.622L128.305 96.978L127.705 93.378L117.841 95.022ZM118.373 97.8V99.4H128.373V97.8H118.373ZM121.343 103.969L123.143 104.769L127.204 95.6309L125.404 94.8309L121.343 103.969ZM121.638 96.6645L119.838 98.4645L126.909 105.536L128.709 103.736L121.638 96.6645ZM118.373 102V103.4H128.373V102H118.373ZM120.6 107.56L121.8 108.36L127.347 100.04L126.147 99.2397L120.6 107.56ZM120.203 101.772L119.203 103.572L127.944 108.428L128.944 106.628L120.203 101.772ZM118.578 105.792L117.978 120.192L127.969 120.608L128.569 106.208L118.578 105.792ZM117.986 120.751L118.986 134.951L128.961 134.249L127.961 120.049L117.986 120.751ZM119.292 132.844L118.692 134.444L128.055 137.956L128.655 136.356L119.292 132.844ZM118.373 136.2V147.6H128.373V136.2H118.373ZM119.577 144.346L118.377 145.746L125.97 152.254L127.17 150.854L119.577 144.346ZM122.173 144H99.5734V154H122.173V144ZM103.537 145.951L99.5366 140.751L91.6103 146.849L95.6103 152.049L103.537 145.951ZM100.142 141.769L98.5425 138.169L89.4044 142.231L91.0044 145.831L100.142 141.769ZM97.1744 144.041L99.5744 142.041L93.1725 134.359L90.7725 136.359L97.1744 144.041ZM101.373 138.2V132.6H91.3734V138.2H101.373ZM99.1469 128.44L97.3469 127.24L91.7999 135.56L93.5999 136.76L99.1469 128.44ZM99.0456 133.636L101.446 128.836L92.5013 124.364L90.1013 129.164L99.0456 133.636ZM100.973 123.6L99.1734 121.2L91.1734 127.2L92.9734 129.6L100.973 123.6ZM100.164 124.512L100.364 121.312L90.3832 120.688L90.1832 123.888L100.164 124.512ZM100.248 122.114L101.848 115.114L92.0991 112.886L90.4991 119.886L100.248 122.114ZM101.767 112.58L100.167 107.18L90.5794 110.02L92.1795 115.42L101.767 112.58ZM100.373 108.6V54.6H90.3734V108.6H100.373ZM97.9459 58.8875L98.9459 58.2875L93.801 49.7125L92.801 50.3125L97.9459 58.8875ZM100.846 51.7639L100.046 50.1639L91.1013 54.6361L91.9013 56.2361L100.846 51.7639ZM100.573 52.4V37.4H90.5734V52.4H100.573ZM100.51 38.1962L101.51 31.9962L91.6372 30.4038L90.6372 36.6038L100.51 38.1962ZM101.573 31.2V9.99999H91.5734V31.2H101.573ZM101.491 9.09418L100.091 1.49418L90.2562 3.30581L91.6562 10.9058L101.491 9.09418ZM98.709 5.93553L99.909 4.73553L92.8379 -2.33554L91.6379 -1.13555L98.709 5.93553ZM96.3734 6.2H121.973V-3.8H96.3734V6.2ZM116.989 1.59165L121.389 57.5916L131.358 56.8083L126.958 0.808346L116.989 1.59165ZM124.137 52.7279L122.937 53.3279L127.41 62.2721L128.609 61.6721L124.137 52.7279ZM120.182 58.0936L120.382 61.4936L130.365 60.9064L130.165 57.5064L120.182 58.0936ZM122.373 57.2L121.573 57.8L127.573 65.8L128.373 65.2L122.373 57.2ZM120.049 63.929L121.649 67.329L130.698 63.071L129.098 59.671L120.049 63.929ZM126.463 70.1916L140.263 69.3916L139.684 59.4084L125.884 60.2084L126.463 70.1916ZM140.83 69.326L150.03 67.7261L148.317 57.8739L139.117 59.4739L140.83 69.326ZM154.041 61.6548L153.241 58.2548L143.506 60.5452L144.306 63.9452L154.041 61.6548ZM153.373 59.4V20.6H143.373V59.4H153.373ZM153.367 20.3426L152.367 0.942604L142.38 1.45739L143.38 20.8574L153.367 20.3426ZM147.373 6.2H171.773V-3.8H147.373V6.2ZM166.933 2.45481L168.333 7.85481L178.013 5.34519L176.613 -0.0548134L166.933 2.45481ZM168.173 6.6V15H178.173V6.6H168.173ZM168.634 12.9047L167.434 15.5047L176.513 19.6953L177.713 17.0953L168.634 12.9047ZM167.017 18.2608L167.817 24.2608L177.73 22.9392L176.93 16.9392L167.017 18.2608ZM167.904 24.7361L170.704 36.7361L180.443 34.4638L177.643 22.4638L167.904 24.7361ZM173.717 30.9576L172.717 31.3576L176.43 40.6424L177.43 40.2424L173.717 30.9576ZM170.413 33.2265L169.613 34.4265L177.934 39.9735L178.734 38.7735L170.413 33.2265ZM168.819 37.8728L171.019 54.0728L180.928 52.7272L178.728 36.5272L168.819 37.8728ZM171.813 56.1735L172.613 57.3735L180.934 51.8265L180.134 50.6265L171.813 56.1735ZM171.824 53.8929L171.624 55.2929L181.523 56.7071L181.723 55.3071L171.824 53.8929ZM172.732 52.7991L171.732 53.9991L179.415 60.4009L180.415 59.2009L172.732 52.7991ZM170.723 58.4127L172.523 65.6127L182.224 63.1873L180.424 55.9873L170.723 58.4127ZM172.373 64.4V98.4H182.373V64.4H172.373ZM172.471 97.4194L172.071 99.4194L181.876 101.381L182.276 99.3806L172.471 97.4194ZM173.438 96.8645L172.438 97.8645L179.509 104.936L180.509 103.936L173.438 96.8645ZM172.438 104.936L173.038 105.536L180.109 98.4645L179.509 97.8645L172.438 104.936ZM172.004 104.031L172.804 105.831L181.943 101.769L181.143 99.9693L172.004 104.031ZM258.453 149.8L258.197 154.793L263.453 155.063V149.8H258.453ZM250.653 149.4L250.909 144.407L250.285 144.375L249.673 144.497L250.653 149.4ZM247.653 150L244.88 154.16L246.603 155.309L248.634 154.903L247.653 150ZM245.853 148.8L248.627 144.64L247.011 143.563L245.093 143.858L245.853 148.8ZM238.053 150V155H238.436L238.813 154.942L238.053 150ZM188.053 150H183.053V155H188.053V150ZM188.053 141H193.053V140.436L192.927 139.886L188.053 141ZM186.453 134H181.453V134.564L181.579 135.114L186.453 134ZM186.453 3.39999H191.453V0.150631L188.484 -1.16906L186.453 3.39999ZM184.653 2.59999V-2.40001L182.622 7.16905L184.653 2.59999ZM252.853 2.59999L254.633 -2.07245L253.773 -2.40001H252.853V2.59999ZM257.053 4.19999H262.053V0.754234L258.833 -0.472443L257.053 4.19999ZM257.053 25.4L255.049 29.9808L262.053 33.0451V25.4H257.053ZM253.853 24L255.857 19.4192L254.899 19H253.853V24ZM215.453 24V19H215.331L215.21 19.0059L215.453 24ZM207.253 24.4L207.01 19.4059L205.082 19.5L203.718 20.8645L207.253 24.4ZM206.053 25.6L202.518 22.0645L201.053 23.5289V25.6H206.053ZM206.053 39.6H201.053V39.9275L201.096 40.2523L206.053 39.6ZM207.053 47.2H212.053V46.8725L212.01 46.5477L207.053 47.2ZM207.053 61H202.053V63.2688L203.761 64.7629L207.053 61ZM208.653 62.4L205.361 66.1629L206.774 67.4H208.653V62.4ZM228.653 62.4V67.4H228.922L229.188 67.3713L228.653 62.4ZM241.653 61L246.648 60.7677L246.401 55.4598L241.118 56.0287L241.653 61ZM242.053 69.6L245.589 73.1355L247.15 71.5739L247.048 69.3677L242.053 69.6ZM241.253 70.4L237.718 66.8645L236.105 68.4767L236.265 70.7512L241.253 70.4ZM242.253 84.6V89.6H247.618L247.241 84.2488L242.253 84.6ZM206.053 84.6V79.6H200.046L201.136 85.5077L206.053 84.6ZM208.453 97.6H213.453V97.1423L213.37 96.6923L208.453 97.6ZM208.453 114L213.431 114.467L213.453 114.234V114H208.453ZM207.853 120.4L202.875 119.933L202.831 120.398L202.875 120.863L207.853 120.4ZM208.653 129L203.675 129.463L204.097 134H208.653V129ZM258.453 129H263.453V124H258.453V129ZM258.709 144.807L250.909 144.407L250.397 154.393L258.197 154.793L258.709 144.807ZM249.673 144.497L246.673 145.097L248.634 154.903L251.634 154.303L249.673 144.497ZM250.427 145.84L248.627 144.64L243.08 152.96L244.88 154.16L250.427 145.84ZM245.093 143.858L237.293 145.058L238.813 154.942L246.613 153.742L245.093 143.858ZM238.053 145H188.053V155H238.053V145ZM193.053 150V141H183.053V150H193.053ZM192.927 139.886L191.327 132.886L181.579 135.114L183.179 142.114L192.927 139.886ZM191.453 134V3.39999H181.453V134H191.453ZM188.484 -1.16906L186.684 -1.96907L182.622 7.16905L184.422 7.96905L188.484 -1.16906ZM184.653 7.59999H252.853V-2.40001H184.653V7.59999ZM251.073 7.27243L255.273 8.87243L258.833 -0.472443L254.633 -2.07245L251.073 7.27243ZM252.053 4.19999V25.4H262.053V4.19999H252.053ZM259.057 20.8192L255.857 19.4192L251.849 28.5808L255.049 29.9808L259.057 20.8192ZM253.853 19H215.453V29H253.853V19ZM215.21 19.0059L207.01 19.4059L207.497 29.3941L215.697 28.994L215.21 19.0059ZM203.718 20.8645L202.518 22.0645L209.589 29.1355L210.789 27.9355L203.718 20.8645ZM201.053 25.6V39.6H211.053V25.6H201.053ZM201.096 40.2523L202.096 47.8523L212.01 46.5477L211.01 38.9477L201.096 40.2523ZM202.053 47.2V61H212.053V47.2H202.053ZM203.761 64.7629L205.361 66.1629L211.946 58.6371L210.346 57.2371L203.761 64.7629ZM208.653 67.4H228.653V57.4H208.653V67.4ZM229.188 67.3713L242.188 65.9713L241.118 56.0287L228.118 57.4287L229.188 67.3713ZM236.659 61.2323L237.059 69.8323L247.048 69.3677L246.648 60.7677L236.659 61.2323ZM238.518 66.0645L237.718 66.8645L244.789 73.9355L245.589 73.1355L238.518 66.0645ZM236.265 70.7512L237.265 84.9512L247.241 84.2488L246.241 70.0488L236.265 70.7512ZM242.253 79.6H206.053V89.6H242.253V79.6ZM201.136 85.5077L203.536 98.5077L213.37 96.6923L210.97 83.6923L201.136 85.5077ZM203.453 97.6V114H213.453V97.6H203.453ZM203.475 113.533L202.875 119.933L212.831 120.867L213.431 114.467L203.475 113.533ZM202.875 120.863L203.675 129.463L213.632 128.537L212.832 119.937L202.875 120.863ZM208.653 134H258.453V124H208.653V134ZM253.453 129V149.8H263.453V129H253.453ZM311.844 147H306.844V152H311.844V147ZM311.844 56.6H316.844V54.3547L315.166 52.863L311.844 56.6ZM308.244 53.4L303.393 52.1873L302.659 55.1252L304.922 57.137L308.244 53.4ZM308.844 51L313.694 52.2127L313.844 51.6155V51H308.844ZM308.844 38L303.875 37.441L303.844 37.7196V38H308.844ZM310.644 22L315.612 22.559L315.644 22.2804V22H310.644ZM310.644 4.59999H315.644V4.36243L315.621 4.12594L310.644 4.59999ZM310.244 0.399994L310.581 -4.58863L304.708 -4.98543L305.266 0.874043L310.244 0.399994ZM325.044 1.39999L324.707 6.38862L324.875 6.39999H325.044V1.39999ZM373.044 1.39999H378.044V-3.60001H373.044V1.39999ZM373.044 64.8H368.044V70.0068L373.246 69.7959L373.044 64.8ZM387.844 64.2L391.685 60.9991L390.106 59.1042L387.641 59.2041L387.844 64.2ZM388.844 65.4H393.844V63.5898L392.685 62.1991L388.844 65.4ZM388.844 147V152H393.844V147H388.844ZM365.644 126.6L365.926 131.592L371.029 131.303L370.628 126.208L365.644 126.6ZM364.244 108.8H359.244V108.996L359.259 109.192L364.244 108.8ZM364.244 86.2H369.244V80.7191L363.786 81.221L364.244 86.2ZM346.844 87.8V92.8H347.073L347.302 92.779L346.844 87.8ZM333.644 87.8V82.8H329.408L328.712 86.978L333.644 87.8ZM333.044 91.4L328.112 90.578L328.044 90.9862V91.4H333.044ZM333.044 126.6H328.044V130.964L332.368 131.554L333.044 126.6ZM337.444 127.2L336.768 132.154L337.104 132.2H337.444V127.2ZM355.044 127.2V132.2H355.185L355.326 132.192L355.044 127.2ZM350.844 22.4L355.316 20.1639L353.934 17.4H350.844V22.4ZM333.244 22.4V17.4H328.244V22.4H333.244ZM333.244 50.8L336.017 54.9603L338.244 53.4759V50.8H333.244ZM332.644 51.2L329.87 47.0397L327.644 48.5241V51.2H332.644ZM332.644 53.6H327.644V54.6982L328.104 55.6953L332.644 53.6ZM333.844 56.2L338.004 58.9735L339.556 56.6453L338.384 54.1047L333.844 56.2ZM332.644 58L328.483 55.2265L326.981 57.4801L328.048 59.9696L332.644 58ZM333.844 60.8L337.379 64.3355L339.773 61.9419L338.439 58.8304L333.844 60.8ZM332.044 62.6L328.508 59.0645L322.788 64.7851L330.463 67.3434L332.044 62.6ZM333.844 63.2L338.829 63.5835L339.128 59.6911L335.425 58.4566L333.844 63.2ZM333.644 65.8L328.658 65.4165L328.244 70.8H333.644V65.8ZM352.044 65.8V70.8H357.044V65.8H352.044ZM352.044 24.8H357.044V23.6196L356.516 22.5639L352.044 24.8ZM316.844 147V56.6H306.844V147H316.844ZM315.166 52.863L311.566 49.6629L304.922 57.137L308.522 60.337L315.166 52.863ZM313.094 54.6127L313.694 52.2127L303.993 49.7873L303.393 52.1873L313.094 54.6127ZM313.844 51V38H303.844V51H313.844ZM313.812 38.559L315.612 22.559L305.675 21.441L303.875 37.441L313.812 38.559ZM315.644 22V4.59999H305.644V22H315.644ZM315.621 4.12594L315.221 -0.0740509L305.266 0.874043L305.666 5.07404L315.621 4.12594ZM309.907 5.38862L324.707 6.38862L325.381 -3.58863L310.581 -4.58863L309.907 5.38862ZM325.044 6.39999H373.044V-3.60001H325.044V6.39999ZM368.044 1.39999V64.8H378.044V1.39999H368.044ZM373.246 69.7959L388.046 69.1959L387.641 59.2041L372.841 59.8041L373.246 69.7959ZM384.003 67.4009L385.003 68.6009L392.685 62.1991L391.685 60.9991L384.003 67.4009ZM383.844 65.4V147H393.844V65.4H383.844ZM388.844 142H311.844V152H388.844V142ZM370.628 126.208L369.228 108.408L359.259 109.192L360.659 126.992L370.628 126.208ZM369.244 108.8V86.2H359.244V108.8H369.244ZM363.786 81.221L346.386 82.821L347.302 92.779L364.702 91.179L363.786 81.221ZM346.844 82.8H333.644V92.8H346.844V82.8ZM328.712 86.978L328.112 90.578L337.976 92.222L338.576 88.622L328.712 86.978ZM328.044 91.4V126.6H338.044V91.4H328.044ZM332.368 131.554L336.768 132.154L338.119 122.246L333.719 121.646L332.368 131.554ZM337.444 132.2H355.044V122.2H337.444V132.2ZM355.326 132.192L365.926 131.592L365.361 121.608L354.761 122.208L355.326 132.192ZM350.844 17.4H333.244V27.4H350.844V17.4ZM328.244 22.4V50.8H338.244V22.4H328.244ZM330.47 46.6397L329.87 47.0397L335.417 55.3602L336.017 54.9603L330.47 46.6397ZM327.644 51.2V53.6H337.644V51.2H327.644ZM328.104 55.6953L329.304 58.2953L338.384 54.1047L337.184 51.5047L328.104 55.6953ZM329.684 53.4265L328.483 55.2265L336.804 60.7735L338.004 58.9735L329.684 53.4265ZM328.048 59.9696L329.248 62.7696L338.439 58.8304L337.239 56.0304L328.048 59.9696ZM330.308 57.2645L328.508 59.0645L335.579 66.1355L337.379 64.3355L330.308 57.2645ZM330.463 67.3434L332.263 67.9434L335.425 58.4566L333.625 57.8566L330.463 67.3434ZM328.858 62.8165L328.658 65.4165L338.629 66.1835L338.829 63.5835L328.858 62.8165ZM333.644 70.8H352.044V60.8H333.644V70.8ZM357.044 65.8V24.8H347.044V65.8H357.044ZM356.516 22.5639L355.316 20.1639L346.372 24.6361L347.572 27.0361L356.516 22.5639ZM403.389 127H408.389V125.531L407.595 124.296L403.389 127ZM401.589 124.2L397.493 121.333L395.569 124.081L397.383 126.904L401.589 124.2ZM402.989 122.2L407.085 125.067L407.989 123.776V122.2H402.989ZM402.989 96.2H407.989V93.4553L405.673 91.9817L402.989 96.2ZM400.789 94.8L397.254 91.2645L392.846 95.6719L398.105 99.0183L400.789 94.8ZM401.789 93.8L405.325 97.3355L406.789 95.8711V93.8H401.789ZM401.789 83.6H406.789V82.0239L405.885 80.7327L401.789 83.6ZM400.389 81.6L395.473 80.6896L395.091 82.7503L396.293 84.4673L400.389 81.6ZM401.389 76.2L406.305 77.1104L406.389 76.6591V76.2H401.389ZM401.389 2.2V-2.8H396.389V2.2H401.389ZM477.589 2.2H482.589V-2.8H477.589V2.2ZM477.589 6.99999H472.589V7.57273L472.719 8.13064L477.589 6.99999ZM480.189 18.2H485.189V17.6273L485.06 17.0693L480.189 18.2ZM480.189 23.6L484.785 25.5696L485.189 24.6263V23.6H480.189ZM479.589 25L474.993 23.0304L474.473 24.2456L474.62 25.5594L479.589 25ZM482.989 55.2L487.277 57.7725L488.147 56.3218L487.958 54.6406L482.989 55.2ZM482.389 56.2L484.87 60.5412L486.004 59.8929L486.677 58.7725L482.389 56.2ZM480.989 57L480.667 61.9896L482.166 62.0863L483.47 61.3412L480.989 57ZM468.589 56.2L468.911 51.2104L468.75 51.2H468.589V56.2ZM463.389 56.2V51.2H461.318L459.854 52.6645L463.389 56.2ZM461.989 57.6L458.454 54.0645L456.542 55.9756L457.095 58.6215L461.989 57.6ZM466.789 80.6L461.895 81.6215L461.917 81.7315L461.945 81.8405L466.789 80.6ZM475.189 113.4L480.102 112.473L480.073 112.315L480.033 112.16L475.189 113.4ZM477.189 124L481.189 127L482.511 125.238L482.102 123.073L477.189 124ZM476.589 124.8L472.589 121.8L469.987 125.269L473.054 128.336L476.589 124.8ZM477.989 126.2L482.918 125.359L482.65 123.79L481.525 122.664L477.989 126.2ZM479.389 134.4L484.339 135.107L484.45 134.331L484.318 133.559L479.389 134.4ZM478.989 137.2L474.039 136.493L473.709 138.807L475.273 140.545L478.989 137.2ZM480.789 139.2L485.737 138.48L485.519 136.981L484.506 135.855L480.789 139.2ZM482.389 150.2V155.2H488.169L487.337 149.48L482.389 150.2ZM461.989 150.2L457.26 151.823L458.419 155.2H461.989V150.2ZM452.789 123.4L447.981 124.774L448.017 124.9L448.06 125.023L452.789 123.4ZM449.989 113.6L445.098 114.638L445.134 114.807L445.181 114.974L449.989 113.6ZM441.589 74L436.667 74.879L436.681 74.9585L436.698 75.0375L441.589 74ZM438.589 57.2L443.511 56.321L442.775 52.2H438.589V57.2ZM423.189 57.2V52.2H417.809L418.202 57.566L423.189 57.2ZM426.389 100.8H431.389V100.617L431.376 100.434L426.389 100.8ZM426.389 117.2H421.389V117.31L421.394 117.42L426.389 117.2ZM426.989 130.8L431.959 131.346L432.001 130.964L431.984 130.58L426.989 130.8ZM424.989 149L425.193 153.996L429.489 153.82L429.959 149.546L424.989 149ZM405.389 149.8L401.854 153.336L403.403 154.885L405.593 154.796L405.389 149.8ZM403.589 148L398.598 148.294L398.709 150.191L400.054 151.536L403.589 148ZM403.389 144.6H398.389V144.747L398.398 144.894L403.389 144.6ZM459.589 37.4V42.4H464.946L464.577 37.056L459.589 37.4ZM459.189 31.6L454.197 31.3227L454.18 31.6335L454.201 31.944L459.189 31.6ZM459.589 24.4L464.581 24.6773L464.875 19.4H459.589V24.4ZM422.389 24.4V19.4H416.29L417.486 25.3806L422.389 24.4ZM423.589 30.4H428.589V29.9049L428.492 29.4194L423.589 30.4ZM423.589 34.6L428.185 36.5696L428.589 35.6263V34.6H423.589ZM422.389 37.4L417.793 35.4304L414.806 42.4H422.389V37.4ZM403.389 144.4L406.925 147.936L410.46 144.4L406.925 140.864L403.389 144.4ZM403.189 144.6H398.189V156.671L406.725 148.136L403.189 144.6ZM403.189 144.2L406.725 140.664L398.189 132.129V144.2H403.189ZM408.389 133.2V127H398.389V133.2H408.389ZM407.595 124.296L405.795 121.496L397.383 126.904L399.183 129.704L407.595 124.296ZM405.685 127.067L407.085 125.067L398.893 119.333L397.493 121.333L405.685 127.067ZM407.989 122.2V96.2H397.989V122.2H407.989ZM405.673 91.9817L403.473 90.5817L398.105 99.0183L400.305 100.418L405.673 91.9817ZM404.325 98.3355L405.325 97.3355L398.254 90.2645L397.254 91.2645L404.325 98.3355ZM406.789 93.8V83.6H396.789V93.8H406.789ZM405.885 80.7327L404.485 78.7327L396.293 84.4673L397.693 86.4673L405.885 80.7327ZM405.305 82.5104L406.305 77.1104L396.473 75.2896L395.473 80.6896L405.305 82.5104ZM406.389 76.2V2.2H396.389V76.2H406.389ZM401.389 7.2H477.589V-2.8H401.389V7.2ZM472.589 2.2V6.99999H482.589V2.2H472.589ZM472.719 8.13064L475.319 19.3306L485.06 17.0693L482.46 5.86935L472.719 8.13064ZM475.189 18.2V23.6H485.189V18.2H475.189ZM475.593 21.6304L474.993 23.0304L484.185 26.9696L484.785 25.5696L475.593 21.6304ZM474.62 25.5594L478.02 55.7594L487.958 54.6406L484.558 24.4406L474.62 25.5594ZM478.702 52.6275L478.102 53.6275L486.677 58.7725L487.277 57.7725L478.702 52.6275ZM479.908 51.8588L478.508 52.6588L483.47 61.3412L484.87 60.5412L479.908 51.8588ZM481.311 52.0104L468.911 51.2104L468.267 61.1896L480.667 61.9896L481.311 52.0104ZM468.589 51.2H463.389V61.2H468.589V51.2ZM459.854 52.6645L458.454 54.0645L465.525 61.1355L466.925 59.7355L459.854 52.6645ZM457.095 58.6215L461.895 81.6215L471.684 79.5785L466.884 56.5785L457.095 58.6215ZM461.945 81.8405L470.345 114.64L480.033 112.16L471.633 79.3595L461.945 81.8405ZM470.276 114.327L472.276 124.927L482.102 123.073L480.102 112.473L470.276 114.327ZM473.189 121L472.589 121.8L480.589 127.8L481.189 127L473.189 121ZM473.054 128.336L474.454 129.736L481.525 122.664L480.125 121.264L473.054 128.336ZM473.06 127.041L474.46 135.241L484.318 133.559L482.918 125.359L473.06 127.041ZM474.439 133.693L474.039 136.493L483.939 137.907L484.339 135.107L474.439 133.693ZM475.273 140.545L477.073 142.545L484.506 135.855L482.706 133.855L475.273 140.545ZM475.841 139.92L477.441 150.92L487.337 149.48L485.737 138.48L475.841 139.92ZM482.389 145.2H461.989V155.2H482.389V145.2ZM466.718 148.577L457.518 121.777L448.06 125.023L457.26 151.823L466.718 148.577ZM457.597 122.026L454.797 112.226L445.181 114.974L447.981 124.774L457.597 122.026ZM454.88 112.562L446.48 72.9625L436.698 75.0375L445.098 114.638L454.88 112.562ZM446.511 73.121L443.511 56.321L433.667 58.0789L436.667 74.879L446.511 73.121ZM438.589 52.2H423.189V62.2H438.589V52.2ZM418.202 57.566L421.402 101.166L431.376 100.434L428.176 56.834L418.202 57.566ZM421.389 100.8V117.2H431.389V100.8H421.389ZM421.394 117.42L421.994 131.02L431.984 130.58L431.384 116.98L421.394 117.42ZM422.019 130.254L420.019 148.454L429.959 149.546L431.959 131.346L422.019 130.254ZM424.785 144.004L405.185 144.804L405.593 154.796L425.193 153.996L424.785 144.004ZM408.925 146.264L407.125 144.464L400.054 151.536L401.854 153.336L408.925 146.264ZM408.58 147.706L408.38 144.306L398.398 144.894L398.598 148.294L408.58 147.706ZM408.389 144.6V133.2H398.389V144.6H408.389ZM464.577 37.056L464.177 31.256L454.201 31.944L454.601 37.744L464.577 37.056ZM464.181 31.8773L464.581 24.6773L454.597 24.1227L454.197 31.3227L464.181 31.8773ZM459.589 19.4H422.389V29.4H459.589V19.4ZM417.486 25.3806L418.686 31.3806L428.492 29.4194L427.292 23.4194L417.486 25.3806ZM418.589 30.4V34.6H428.589V30.4H418.589ZM418.993 32.6304L417.793 35.4304L426.985 39.3696L428.185 36.5696L418.993 32.6304ZM422.389 42.4H459.589V32.4H422.389V42.4ZM399.854 140.864L399.654 141.064L406.725 148.136L406.925 147.936L399.854 140.864ZM408.189 144.6V144.2H398.189V144.6H408.189ZM399.654 147.736L399.854 147.936L406.925 140.864L406.725 140.664L399.654 147.736ZM524.544 112.2L529.364 113.53L530.397 109.786L527.024 107.859L524.544 112.2ZM522.944 118L518.124 116.67L517.944 117.323V118H522.944ZM522.944 142.4L522.122 147.332L527.944 148.302V142.4H522.944ZM521.744 142.2L522.566 137.268L516.744 136.298V142.2H521.744ZM521.744 149.6H516.744V152.1L518.744 153.6L521.744 149.6ZM522.544 150.2V155.2H537.544L525.544 146.2L522.544 150.2ZM497.144 150.2L492.318 151.507L493.318 155.2H497.144V150.2ZM494.544 140.6L489.948 138.63L489.263 140.229L489.718 141.907L494.544 140.6ZM495.744 137.8L500.339 139.77L500.744 138.826V137.8H495.744ZM495.744 124.8H500.744V124.714L500.741 124.628L495.744 124.8ZM494.544 90L490.072 87.7639L489.503 88.9014L489.547 90.1723L494.544 90ZM495.344 88.4L499.816 90.6361L500.344 89.5803V88.4H495.344ZM495.344 70.2H500.344V68.6239L499.44 67.3327L495.344 70.2ZM493.944 68.2L489.656 65.6275L487.987 68.4095L489.848 71.0673L493.944 68.2ZM495.144 66.2L499.431 68.7725L500.244 67.4186L500.131 65.8438L495.144 66.2ZM494.544 57.8L489.549 57.573L489.536 57.8648L489.556 58.1562L494.544 57.8ZM495.144 44.6L491.144 41.6L490.219 42.8331L490.149 44.373L495.144 44.6ZM495.744 43.8L499.744 46.8L502.915 42.5716L498.517 39.6397L495.744 43.8ZM494.544 43L489.566 42.5259L489.283 45.502L491.77 47.1602L494.544 43ZM494.944 38.8L490.554 36.4057L490.063 37.3056L489.966 38.3259L494.944 38.8ZM496.144 36.6L500.533 38.9943L502.126 36.074L500.048 33.4765L496.144 36.6ZM494.544 34.6L489.776 33.0943L488.972 35.6394L490.639 37.7235L494.544 34.6ZM495.744 30.8L500.512 32.3057L500.744 31.5707V30.8H495.744ZM495.744 8.6L490.831 7.67054L490.744 8.13118V8.6H495.744ZM497.144 1.2V-3.8H493.001L492.231 0.270538L497.144 1.2ZM513.744 1.2V6.2H513.978L514.21 6.17817L513.744 1.2ZM520.144 0.599991L525.11 0.0205879L524.544 -4.83442L519.677 -4.37818L520.144 0.599991ZM522.944 24.6H527.944V24.3093L527.91 24.0206L522.944 24.6ZM522.944 89.8H517.944V89.9056L517.948 90.0111L522.944 89.8ZM523.544 104L528.536 104.27L528.549 104.029L528.539 103.789L523.544 104ZM523.144 111.4L518.151 111.13L517.985 114.211L520.663 115.741L523.144 111.4ZM519.724 110.87L518.124 116.67L527.764 119.33L529.364 113.53L519.724 110.87ZM517.944 118V142.4H527.944V118H517.944ZM523.766 137.468L522.566 137.268L520.922 147.132L522.122 147.332L523.766 137.468ZM516.744 142.2V149.6H526.744V142.2H516.744ZM518.744 153.6L519.544 154.2L525.544 146.2L524.744 145.6L518.744 153.6ZM522.544 145.2H497.144V155.2H522.544V145.2ZM501.97 148.893L499.37 139.293L489.718 141.907L492.318 151.507L501.97 148.893ZM499.139 142.57L500.339 139.77L491.148 135.83L489.948 138.63L499.139 142.57ZM500.744 137.8V124.8H490.744V137.8H500.744ZM500.741 124.628L499.541 89.8277L489.547 90.1723L490.747 124.972L500.741 124.628ZM499.016 92.2361L499.816 90.6361L490.872 86.1639L490.072 87.7639L499.016 92.2361ZM500.344 88.4V70.2H490.344V88.4H500.344ZM499.44 67.3327L498.04 65.3327L489.848 71.0673L491.248 73.0673L499.44 67.3327ZM498.231 70.7725L499.431 68.7725L490.856 63.6275L489.656 65.6275L498.231 70.7725ZM500.131 65.8438L499.531 57.4438L489.556 58.1562L490.156 66.5562L500.131 65.8438ZM499.539 58.027L500.139 44.827L490.149 44.373L489.549 57.573L499.539 58.027ZM499.144 47.6L499.744 46.8L491.744 40.8L491.144 41.6L499.144 47.6ZM498.517 39.6397L497.317 38.8397L491.77 47.1602L492.97 47.9602L498.517 39.6397ZM499.521 43.474L499.921 39.274L489.966 38.3259L489.566 42.5259L499.521 43.474ZM499.333 41.1943L500.533 38.9943L491.754 34.2057L490.554 36.4057L499.333 41.1943ZM500.048 33.4765L498.448 31.4765L490.639 37.7235L492.239 39.7235L500.048 33.4765ZM499.312 36.1057L500.512 32.3057L490.976 29.2943L489.776 33.0943L499.312 36.1057ZM500.744 30.8V8.6H490.744V30.8H500.744ZM500.657 9.52945L502.057 2.12946L492.231 0.270538L490.831 7.67054L500.657 9.52945ZM497.144 6.2H513.744V-3.8H497.144V6.2ZM514.21 6.17817L520.61 5.57816L519.677 -4.37818L513.277 -3.77817L514.21 6.17817ZM515.177 1.1794L517.977 25.1794L527.91 24.0206L525.11 0.0205879L515.177 1.1794ZM517.944 24.6V89.8H527.944V24.6H517.944ZM517.948 90.0111L518.548 104.211L528.539 103.789L527.939 89.5889L517.948 90.0111ZM518.551 103.73L518.151 111.13L528.136 111.67L528.536 104.27L518.551 103.73ZM520.663 115.741L522.063 116.541L527.024 107.859L525.624 107.059L520.663 115.741ZM617.075 27.8V32.8H622.075V27.8H617.075ZM586.675 27.8V22.8H581.675V27.8H586.675ZM586.675 152L586.234 156.98L591.675 157.463V152H586.675ZM570.875 150.6L571.316 145.62L570.027 145.505L568.844 146.031L570.875 150.6ZM567.275 152.2L567.012 157.193L568.21 157.256L569.306 156.769L567.275 152.2ZM563.475 152H558.475V156.744L563.212 156.993L563.475 152ZM563.475 109.8H568.475V109.251L568.356 108.715L563.475 109.8ZM563.075 108L558.915 105.226L557.731 107.002L558.194 109.085L563.075 108ZM563.875 106.8L568.035 109.574L569.013 108.107L568.855 106.352L563.875 106.8ZM562.275 89L567.255 88.5524L567.12 87.0525L566.179 85.8765L562.275 89ZM561.475 88L556.86 86.0769L555.721 88.8108L557.571 91.1235L561.475 88ZM563.475 83.2L568.09 85.1231L568.475 84.2V83.2H563.475ZM563.475 27.8H568.475V22.8H563.475V27.8ZM533.275 27.8H528.275V32.8H533.275V27.8ZM533.275 3V-2H528.275V3H533.275ZM616.675 3H621.675V-2H616.675V3ZM616.675 7.6L621.418 9.18113L621.675 8.41138V7.6H616.675ZM616.075 9.4L611.332 7.81886L610.677 9.78365L611.603 11.6361L616.075 9.4ZM617.075 11.4H622.075V10.2197L621.547 9.16393L617.075 11.4ZM617.075 22.8H586.675V32.8H617.075V22.8ZM581.675 27.8V152H591.675V27.8H581.675ZM587.116 147.02L571.316 145.62L570.434 155.58L586.234 156.98L587.116 147.02ZM568.844 146.031L565.244 147.631L569.306 156.769L572.906 155.169L568.844 146.031ZM567.538 147.207L563.738 147.007L563.212 156.993L567.012 157.193L567.538 147.207ZM568.475 152V109.8H558.475V152H568.475ZM568.356 108.715L567.956 106.915L558.194 109.085L558.594 110.885L568.356 108.715ZM567.235 110.773L568.035 109.574L559.715 104.026L558.915 105.226L567.235 110.773ZM568.855 106.352L567.255 88.5524L557.295 89.4476L558.895 107.248L568.855 106.352ZM566.179 85.8765L565.379 84.8765L557.571 91.1235L558.371 92.1235L566.179 85.8765ZM566.09 89.9231L568.09 85.1231L558.86 81.2769L556.86 86.0769L566.09 89.9231ZM568.475 83.2V27.8H558.475V83.2H568.475ZM563.475 22.8H533.275V32.8H563.475V22.8ZM538.275 27.8V3H528.275V27.8H538.275ZM533.275 8H616.675V-2H533.275V8ZM611.675 3V7.6H621.675V3H611.675ZM611.932 6.01886L611.332 7.81886L620.818 10.9811L621.418 9.18113L611.932 6.01886ZM611.603 11.6361L612.603 13.6361L621.547 9.16393L620.547 7.16393L611.603 11.6361ZM612.075 11.4V27.8H622.075V11.4H612.075ZM707.448 121L712.34 122.038L713.043 118.721L710.222 116.84L707.448 121ZM704.648 134.2L699.757 133.162L699.648 133.676V134.2H704.648ZM704.648 139H699.648V140.415L700.39 141.62L704.648 139ZM706.248 141.6L711.214 142.184L711.417 140.459L710.507 138.98L706.248 141.6ZM705.448 148.4L705.182 153.393L709.866 153.643L710.414 148.984L705.448 148.4ZM690.448 147.6L690.715 142.607L690.086 142.574L689.468 142.697L690.448 147.6ZM688.448 148V153H688.944L689.429 152.903L688.448 148ZM630.648 148L625.905 149.581L627.045 153H630.648V148ZM629.248 143.8L624.279 144.352L624.338 144.879L624.505 145.381L629.248 143.8ZM627.848 131.2H622.848V131.477L622.879 131.752L627.848 131.2ZM627.848 88.4L623.688 85.6265L622.848 86.8861V88.4H627.848ZM628.648 87.2L628.411 82.2057L625.889 82.3258L624.488 84.4265L628.648 87.2ZM637.048 86.8V81.8H636.929L636.811 81.8057L637.048 86.8ZM650.048 86.8H655.048V81.8H650.048V86.8ZM650.048 96.2H645.048V97.7761L645.952 99.0673L650.048 96.2ZM651.448 98.2L654.649 102.041L658.181 99.0984L655.545 95.3327L651.448 98.2ZM650.248 99.2L647.048 95.3589L645.248 96.8581V99.2H650.248ZM650.248 117.4L654.93 119.156L655.248 118.307V117.4H650.248ZM649.648 119L644.967 117.244L644.542 118.376L644.682 119.577L649.648 119ZM650.648 127.6L645.682 128.178L646.196 132.6H650.648V127.6ZM685.648 127.6V132.6H690.967L690.639 127.292L685.648 127.6ZM683.448 92L688.439 91.6916L688.257 88.7538L685.601 87.4869L683.448 92ZM627.248 65.2H622.248V68.3551L625.096 69.7131L627.248 65.2ZM627.248 2.59999V-2.40001H622.248V2.59999H627.248ZM658.848 2.59999V7.59999H660.602L661.972 6.50433L658.848 2.59999ZM659.848 1.79999L660.433 -3.16576L658.357 -3.40997L656.725 -2.10435L659.848 1.79999ZM663.248 2.2L666.784 -1.33554L665.557 -2.56294L663.833 -2.76576L663.248 2.2ZM664.048 3L660.513 6.53553L662.378 8.40038L664.97 7.91436L664.048 3ZM670.448 1.79999L674.29 -1.40092L672.411 -3.65514L669.527 -3.11437L670.448 1.79999ZM671.448 3L667.607 6.2009L669.633 8.63221L672.698 7.84138L671.448 3ZM677.648 1.39999L677.96 -3.59027L677.168 -3.6398L676.399 -3.44139L677.648 1.39999ZM680.848 1.59999L685.136 -0.972485L683.784 -3.22632L681.16 -3.39027L680.848 1.59999ZM681.448 2.59999L677.161 5.17247L678.754 7.82823L681.842 7.58448L681.448 2.59999ZM696.648 1.39999L700.49 -1.80093L698.834 -3.78807L696.255 -3.5845L696.648 1.39999ZM697.648 2.59999L693.807 5.80091L694.764 6.94844L696.193 7.38336L697.648 2.59999ZM702.248 4L707.228 3.54732L706.923 0.196335L703.704 -0.783371L702.248 4ZM703.048 12.8L705.285 17.2721L708.337 15.7459L708.028 12.3473L703.048 12.8ZM701.848 13.4L699.612 8.92786L694.408 11.5299L697.764 16.2834L701.848 13.4ZM704.248 16.8H709.248V15.2131L708.333 13.9166L704.248 16.8ZM704.248 22.4L708.59 24.8807L709.248 23.7278V22.4H704.248ZM703.448 23.8L699.107 21.3193L697.731 23.7279L699.046 26.1705L703.448 23.8ZM704.848 26.4H709.848V25.1394L709.251 24.0295L704.848 26.4ZM704.848 60.8L704.405 65.7803L709.848 66.2654V60.8H704.848ZM684.648 59L679.835 60.3537L680.769 63.6741L684.205 63.9803L684.648 59ZM682.848 52.6H677.848V53.2897L678.035 53.9537L682.848 52.6ZM682.848 25.8H687.848V21.3248L683.401 20.8306L682.848 25.8ZM679.248 25.4L679.801 20.4306L679.366 20.3823L678.93 20.4101L679.248 25.4ZM669.848 26V31H670.008L670.167 30.9898L669.848 26ZM647.848 26V21H642.848V26H647.848ZM647.848 33.8H642.848V35.1849L643.561 36.3725L647.848 33.8ZM649.048 35.8L653.747 37.5087L654.561 35.2701L653.336 33.2275L649.048 35.8ZM648.248 38L643.549 36.2913L643.248 37.1191V38H648.248ZM648.248 42.8H643.248V44.8711L644.713 46.3355L648.248 42.8ZM649.048 43.6L653.792 45.1811L654.769 42.2495L652.584 40.0645L649.048 43.6ZM648.448 45.4L643.705 43.8189L643.448 44.5886V45.4H648.448ZM648.448 49.6H643.448V52.062L645.4 53.5631L648.448 49.6ZM651.048 51.6L648 55.5631L648.351 55.833L648.743 56.037L651.048 51.6ZM697.248 75.6H702.248V72.563L699.553 71.163L697.248 75.6ZM697.248 77.2H692.248V80.4494L695.218 81.7691L697.248 77.2ZM706.248 81.2H711.248V77.9506L708.279 76.6309L706.248 81.2ZM706.248 82.6L708.821 86.8875L711.248 85.431V82.6H706.248ZM705.248 83.2L702.676 78.9125L700.128 80.4411L700.253 83.4096L705.248 83.2ZM706.448 111.8L711.345 112.813L711.47 112.208L711.444 111.59L706.448 111.8ZM705.248 117.6L700.352 116.587L699.617 120.141L702.768 121.941L705.248 117.6ZM706.648 118.4L711.628 117.947L711.392 115.352L709.129 114.059L706.648 118.4ZM706.848 120.6L701.869 121.053L702.085 123.434L704.075 124.76L706.848 120.6ZM702.557 119.962L699.757 133.162L709.54 135.238L712.34 122.038L702.557 119.962ZM699.648 134.2V139H709.648V134.2H699.648ZM700.39 141.62L701.99 144.22L710.507 138.98L708.907 136.38L700.39 141.62ZM701.283 141.016L700.483 147.816L710.414 148.984L711.214 142.184L701.283 141.016ZM705.715 143.407L690.715 142.607L690.182 152.593L705.182 153.393L705.715 143.407ZM689.468 142.697L687.468 143.097L689.429 152.903L691.429 152.503L689.468 142.697ZM688.448 143H630.648V153H688.448V143ZM635.392 146.419L633.992 142.219L624.505 145.381L625.905 149.581L635.392 146.419ZM634.218 143.248L632.818 130.648L622.879 131.752L624.279 144.352L634.218 143.248ZM632.848 131.2V88.4H622.848V131.2H632.848ZM632.009 91.1735L632.809 89.9735L624.488 84.4265L623.688 85.6265L632.009 91.1735ZM628.886 92.1943L637.286 91.7943L636.811 81.8057L628.411 82.2057L628.886 92.1943ZM637.048 91.8H650.048V81.8H637.048V91.8ZM645.048 86.8V96.2H655.048V86.8H645.048ZM645.952 99.0673L647.352 101.067L655.545 95.3327L654.145 93.3327L645.952 99.0673ZM648.247 94.3589L647.048 95.3589L653.449 103.041L654.649 102.041L648.247 94.3589ZM645.248 99.2V117.4H655.248V99.2H645.248ZM645.567 115.644L644.967 117.244L654.33 120.756L654.93 119.156L645.567 115.644ZM644.682 119.577L645.682 128.178L655.615 127.022L654.615 118.423L644.682 119.577ZM650.648 132.6H685.648V122.6H650.648V132.6ZM690.639 127.292L688.439 91.6916L678.458 92.3084L680.658 127.908L690.639 127.292ZM685.601 87.4869L629.401 60.6869L625.096 69.7131L681.296 96.5131L685.601 87.4869ZM632.248 65.2V2.59999H622.248V65.2H632.248ZM627.248 7.59999H658.848V-2.40001H627.248V7.59999ZM661.972 6.50433L662.972 5.70433L656.725 -2.10435L655.725 -1.30435L661.972 6.50433ZM659.264 6.76574L662.664 7.16575L663.833 -2.76576L660.433 -3.16576L659.264 6.76574ZM659.713 5.73553L660.513 6.53553L667.584 -0.535538L666.784 -1.33554L659.713 5.73553ZM664.97 7.91436L671.37 6.71435L669.527 -3.11437L663.127 -1.91436L664.97 7.91436ZM666.607 5.0009L667.607 6.2009L675.29 -0.200909L674.29 -1.40092L666.607 5.0009ZM672.698 7.84138L678.898 6.24138L676.399 -3.44139L670.199 -1.84139L672.698 7.84138ZM677.337 6.39026L680.537 6.59026L681.16 -3.39027L677.96 -3.59027L677.337 6.39026ZM676.561 4.17247L677.161 5.17247L685.736 0.0275154L685.136 -0.972485L676.561 4.17247ZM681.842 7.58448L697.042 6.38448L696.255 -3.5845L681.055 -2.3845L681.842 7.58448ZM692.807 4.60092L693.807 5.80091L701.49 -0.600937L700.49 -1.80093L692.807 4.60092ZM696.193 7.38336L700.793 8.78336L703.704 -0.783371L699.104 -2.18338L696.193 7.38336ZM697.269 4.45267L698.069 13.2527L708.028 12.3473L707.228 3.54732L697.269 4.45267ZM700.812 8.32786L699.612 8.92786L704.085 17.8721L705.285 17.2721L700.812 8.32786ZM697.764 16.2834L700.164 19.6834L708.333 13.9166L705.933 10.5166L697.764 16.2834ZM699.248 16.8V22.4H709.248V16.8H699.248ZM699.907 19.9193L699.107 21.3193L707.79 26.2807L708.59 24.8807L699.907 19.9193ZM699.046 26.1705L700.446 28.7705L709.251 24.0295L707.851 21.4295L699.046 26.1705ZM699.848 26.4V60.8H709.848V26.4H699.848ZM705.292 55.8197L685.092 54.0197L684.205 63.9803L704.405 65.7803L705.292 55.8197ZM689.462 57.6463L687.662 51.2463L678.035 53.9537L679.835 60.3537L689.462 57.6463ZM687.848 52.6V25.8H677.848V52.6H687.848ZM683.401 20.8306L679.801 20.4306L678.696 30.3694L682.296 30.7694L683.401 20.8306ZM678.93 20.4101L669.53 21.0102L670.167 30.9898L679.567 30.3898L678.93 20.4101ZM669.848 21H647.848V31H669.848V21ZM642.848 26V33.8H652.848V26H642.848ZM643.561 36.3725L644.761 38.3725L653.336 33.2275L652.136 31.2275L643.561 36.3725ZM644.349 34.0913L643.549 36.2913L652.947 39.7087L653.747 37.5087L644.349 34.0913ZM643.248 38V42.8H653.248V38H643.248ZM644.713 46.3355L645.513 47.1355L652.584 40.0645L651.784 39.2645L644.713 46.3355ZM644.305 42.0189L643.705 43.8189L653.192 46.9811L653.792 45.1811L644.305 42.0189ZM643.448 45.4V49.6H653.448V45.4H643.448ZM645.4 53.5631L648 55.5631L654.097 47.6369L651.497 45.6369L645.4 53.5631ZM648.743 56.037L694.943 80.037L699.553 71.163L653.353 47.163L648.743 56.037ZM692.248 75.6V77.2H702.248V75.6H692.248ZM695.218 81.7691L704.218 85.7691L708.279 76.6309L699.279 72.6309L695.218 81.7691ZM701.248 81.2V82.6H711.248V81.2H701.248ZM703.676 78.3125L702.676 78.9125L707.821 87.4875L708.821 86.8875L703.676 78.3125ZM700.253 83.4096L701.453 112.01L711.444 111.59L710.244 82.9904L700.253 83.4096ZM701.552 110.787L700.352 116.587L710.145 118.613L711.345 112.813L701.552 110.787ZM702.768 121.941L704.168 122.741L709.129 114.059L707.729 113.259L702.768 121.941ZM701.669 118.853L701.869 121.053L711.828 120.147L711.628 117.947L701.669 118.853ZM704.075 124.76L704.675 125.16L710.222 116.84L709.622 116.44L704.075 124.76Z" fill="url(#paint0_linear_20_31)" mask="url(#path-1-outside-1_20_31)"/>
</g>
<defs>
<linearGradient id="paint0_linear_20_31" x1="10.5" y1="18" x2="700" y2="16.5" gradientUnits="userSpaceOnUse">
<stop stop-color="#4E9CF4"/>
<stop offset="0.515669" stop-color="#F4584E"/>
<stop offset="1" stop-color="#4E73F4"/>
</linearGradient>
</defs>
</svg>
