<svg width="29" height="31" viewBox="0 0 29 31" fill="none" xmlns="http://www.w3.org/2000/svg">
<rect width="29" height="31" rx="2" fill="#2F3E51"/>
<mask id="path-2-outside-1_25_67" maskUnits="userSpaceOnUse" x="3" y="6" width="20" height="19" fill="black">
<rect fill="white" x="3" y="6" width="20" height="19"/>
<path d="M12.82 10.78H9.78V23.2L8.2 23.06L7.84 23.22L7.46 23.2V18.98L7.42 18.8L7.5 18.68L7.34 16.9L7.26 16.8L7.46 16.32V10.78H4.44V8.3H12.78V8.76L12.72 8.94L12.82 9.14V10.78ZM13.9773 22.7V13.66L13.6173 13.34L13.6773 13.1V11.8L13.8573 10.2V8.46L13.8173 8.04L15.2973 8.14H20.0973V14.48L21.5773 14.42L21.6773 14.54V22.7H13.9773ZM19.3573 20.66L19.2173 18.88V16.62L17.4773 16.78H16.1573L16.0973 17.14V20.66L16.5373 20.72H18.2973L19.3573 20.66ZM17.8773 10.24H16.1173V13.08L16.0573 13.12V13.36L16.1773 13.62L16.0573 13.8L16.1773 14.08L15.9973 14.26L16.1773 14.32L16.1573 14.58H17.9973V10.48L17.8773 10.24Z"/>
</mask>
<path d="M12.82 10.78H9.78V23.2L8.2 23.06L7.84 23.22L7.46 23.2V18.98L7.42 18.8L7.5 18.68L7.34 16.9L7.26 16.8L7.46 16.32V10.78H4.44V8.3H12.78V8.76L12.72 8.94L12.82 9.14V10.78ZM13.9773 22.7V13.66L13.6173 13.34L13.6773 13.1V11.8L13.8573 10.2V8.46L13.8173 8.04L15.2973 8.14H20.0973V14.48L21.5773 14.42L21.6773 14.54V22.7H13.9773ZM19.3573 20.66L19.2173 18.88V16.62L17.4773 16.78H16.1573L16.0973 17.14V20.66L16.5373 20.72H18.2973L19.3573 20.66ZM17.8773 10.24H16.1173V13.08L16.0573 13.12V13.36L16.1773 13.62L16.0573 13.8L16.1773 14.08L15.9973 14.26L16.1773 14.32L16.1573 14.58H17.9973V10.48L17.8773 10.24Z" fill="white"/>
<path d="M12.82 10.78V11.78H13.82V10.78H12.82ZM9.78 10.78V9.78H8.78V10.78H9.78ZM9.78 23.2L9.69174 24.1961L10.78 24.2925V23.2H9.78ZM8.2 23.06L8.28826 22.0639L8.03041 22.0411L7.79386 22.1462L8.2 23.06ZM7.84 23.22L7.78744 24.2186L8.02696 24.2312L8.24614 24.1338L7.84 23.22ZM7.46 23.2H6.46V24.1488L7.40744 24.1986L7.46 23.2ZM7.46 18.98H8.46V18.8702L8.43619 18.7631L7.46 18.98ZM7.42 18.8L6.58795 18.2453L6.35124 18.6004L6.44381 19.0169L7.42 18.8ZM7.5 18.68L8.33205 19.2347L8.52754 18.9415L8.49598 18.5905L7.5 18.68ZM7.34 16.9L8.33598 16.8105L8.30902 16.5105L8.12087 16.2753L7.34 16.9ZM7.26 16.8L6.33692 16.4154L6.1091 16.9622L6.47913 17.4247L7.26 16.8ZM7.46 16.32L8.38308 16.7046L8.46 16.52V16.32H7.46ZM7.46 10.78H8.46V9.78H7.46V10.78ZM4.44 10.78H3.44V11.78H4.44V10.78ZM4.44 8.3V7.3H3.44V8.3H4.44ZM12.78 8.3H13.78V7.3H12.78V8.3ZM12.78 8.76L13.7287 9.07623L13.78 8.92228V8.76H12.78ZM12.72 8.94L11.7713 8.62377L11.6403 9.01673L11.8256 9.38721L12.72 8.94ZM12.82 9.14H13.82V8.90393L13.7144 8.69279L12.82 9.14ZM12.82 9.78H9.78V11.78H12.82V9.78ZM8.78 10.78V23.2H10.78V10.78H8.78ZM9.86826 22.2039L8.28826 22.0639L8.11174 24.0561L9.69174 24.1961L9.86826 22.2039ZM7.79386 22.1462L7.43386 22.3062L8.24614 24.1338L8.60614 23.9738L7.79386 22.1462ZM7.89256 22.2214L7.51256 22.2014L7.40744 24.1986L7.78744 24.2186L7.89256 22.2214ZM8.46 23.2V18.98H6.46V23.2H8.46ZM8.43619 18.7631L8.39619 18.5831L6.44381 19.0169L6.48381 19.1969L8.43619 18.7631ZM8.25205 19.3547L8.33205 19.2347L6.66795 18.1253L6.58795 18.2453L8.25205 19.3547ZM8.49598 18.5905L8.33598 16.8105L6.34402 16.9895L6.50402 18.7695L8.49598 18.5905ZM8.12087 16.2753L8.04087 16.1753L6.47913 17.4247L6.55913 17.5247L8.12087 16.2753ZM8.18308 17.1846L8.38308 16.7046L6.53692 15.9354L6.33692 16.4154L8.18308 17.1846ZM8.46 16.32V10.78H6.46V16.32H8.46ZM7.46 9.78H4.44V11.78H7.46V9.78ZM5.44 10.78V8.3H3.44V10.78H5.44ZM4.44 9.3H12.78V7.3H4.44V9.3ZM11.78 8.3V8.76H13.78V8.3H11.78ZM11.8313 8.44377L11.7713 8.62377L13.6687 9.25623L13.7287 9.07623L11.8313 8.44377ZM11.8256 9.38721L11.9256 9.58721L13.7144 8.69279L13.6144 8.49279L11.8256 9.38721ZM11.82 9.14V10.78H13.82V9.14H11.82ZM13.9773 22.7H12.9773V23.7H13.9773V22.7ZM13.9773 13.66H14.9773V13.2109L14.6417 12.9126L13.9773 13.66ZM13.6173 13.34L12.6472 13.0975L12.5003 13.685L12.953 14.0874L13.6173 13.34ZM13.6773 13.1L14.6475 13.3425L14.6773 13.2231V13.1H13.6773ZM13.6773 11.8L12.6836 11.6882L12.6773 11.7439V11.8H13.6773ZM13.8573 10.2L14.8511 10.3118L14.8573 10.2561V10.2H13.8573ZM13.8573 8.46H14.8573V8.41249L14.8528 8.36519L13.8573 8.46ZM13.8173 8.04L13.8848 7.04227L12.7102 6.96292L12.8218 8.13481L13.8173 8.04ZM15.2973 8.14L15.2299 9.13772L15.2636 9.14H15.2973V8.14ZM20.0973 8.14H21.0973V7.14H20.0973V8.14ZM20.0973 14.48H19.0973V15.5214L20.1379 15.4792L20.0973 14.48ZM21.5773 14.42L22.3456 13.7798L22.0298 13.4008L21.5368 13.4208L21.5773 14.42ZM21.6773 14.54H22.6773V14.178L22.4456 13.8998L21.6773 14.54ZM21.6773 22.7V23.7H22.6773V22.7H21.6773ZM19.3573 20.66L19.4139 21.6584L20.4344 21.6006L20.3543 20.5816L19.3573 20.66ZM19.2173 18.88H18.2173V18.9193L18.2204 18.9584L19.2173 18.88ZM19.2173 16.62H20.2173V15.5238L19.1258 15.6242L19.2173 16.62ZM17.4773 16.78V17.78H17.5232L17.5689 17.7758L17.4773 16.78ZM16.1573 16.78V15.78H15.3102L15.1709 16.6156L16.1573 16.78ZM16.0973 17.14L15.111 16.9756L15.0973 17.0572V17.14H16.0973ZM16.0973 20.66H15.0973V21.5329L15.9622 21.6508L16.0973 20.66ZM16.5373 20.72L16.4022 21.7108L16.4695 21.72H16.5373V20.72ZM18.2973 20.72V21.72H18.3256L18.3539 21.7184L18.2973 20.72ZM17.8773 10.24L18.7718 9.79279L18.4954 9.24H17.8773V10.24ZM16.1173 10.24V9.24H15.1173V10.24H16.1173ZM16.1173 13.08L16.672 13.9121L17.1173 13.6152V13.08H16.1173ZM16.0573 13.12L15.5026 12.2879L15.0573 12.5848V13.12H16.0573ZM16.0573 13.36H15.0573V13.5796L15.1494 13.7791L16.0573 13.36ZM16.1773 13.62L17.0094 14.1747L17.3198 13.7091L17.0853 13.2009L16.1773 13.62ZM16.0573 13.8L15.2253 13.2453L14.9248 13.696L15.1382 14.1939L16.0573 13.8ZM16.1773 14.08L16.8845 14.7871L17.3632 14.3084L17.0965 13.6861L16.1773 14.08ZM15.9973 14.26L15.2902 13.5529L14.1461 14.697L15.6811 15.2087L15.9973 14.26ZM16.1773 14.32L17.1744 14.3967L17.2343 13.6182L16.4936 13.3713L16.1773 14.32ZM16.1573 14.58L15.1603 14.5033L15.0775 15.58H16.1573V14.58ZM17.9973 14.58V15.58H18.9973V14.58H17.9973ZM17.9973 10.48H18.9973V10.2439L18.8918 10.0328L17.9973 10.48ZM14.9773 22.7V13.66H12.9773V22.7H14.9773ZM14.6417 12.9126L14.2817 12.5926L12.953 14.0874L13.313 14.4074L14.6417 12.9126ZM14.5875 13.5825L14.6475 13.3425L12.7072 12.8575L12.6472 13.0975L14.5875 13.5825ZM14.6773 13.1V11.8H12.6773V13.1H14.6773ZM14.6711 11.9118L14.8511 10.3118L12.8636 10.0882L12.6836 11.6882L14.6711 11.9118ZM14.8573 10.2V8.46H12.8573V10.2H14.8573ZM14.8528 8.36519L14.8128 7.94519L12.8218 8.13481L12.8618 8.55481L14.8528 8.36519ZM13.7499 9.03772L15.2299 9.13772L15.3648 7.14227L13.8848 7.04227L13.7499 9.03772ZM15.2973 9.14H20.0973V7.14H15.2973V9.14ZM19.0973 8.14V14.48H21.0973V8.14H19.0973ZM20.1379 15.4792L21.6179 15.4192L21.5368 13.4208L20.0568 13.4808L20.1379 15.4792ZM20.8091 15.0602L20.9091 15.1802L22.4456 13.8998L22.3456 13.7798L20.8091 15.0602ZM20.6773 14.54V22.7H22.6773V14.54H20.6773ZM21.6773 21.7H13.9773V23.7H21.6773V21.7ZM20.3543 20.5816L20.2143 18.8016L18.2204 18.9584L18.3604 20.7384L20.3543 20.5816ZM20.2173 18.88V16.62H18.2173V18.88H20.2173ZM19.1258 15.6242L17.3858 15.7842L17.5689 17.7758L19.3089 17.6158L19.1258 15.6242ZM17.4773 15.78H16.1573V17.78H17.4773V15.78ZM15.1709 16.6156L15.111 16.9756L17.0837 17.3044L17.1437 16.9444L15.1709 16.6156ZM15.0973 17.14V20.66H17.0973V17.14H15.0973ZM15.9622 21.6508L16.4022 21.7108L16.6725 19.7292L16.2325 19.6692L15.9622 21.6508ZM16.5373 21.72H18.2973V19.72H16.5373V21.72ZM18.3539 21.7184L19.4139 21.6584L19.3008 19.6616L18.2408 19.7216L18.3539 21.7184ZM17.8773 9.24H16.1173V11.24H17.8773V9.24ZM15.1173 10.24V13.08H17.1173V10.24H15.1173ZM15.5626 12.2479L15.5026 12.2879L16.612 13.9521L16.672 13.9121L15.5626 12.2479ZM15.0573 13.12V13.36H17.0573V13.12H15.0573ZM15.1494 13.7791L15.2694 14.0391L17.0853 13.2009L16.9653 12.9409L15.1494 13.7791ZM15.3453 13.0653L15.2253 13.2453L16.8894 14.3547L17.0094 14.1747L15.3453 13.0653ZM15.1382 14.1939L15.2582 14.4739L17.0965 13.6861L16.9765 13.4061L15.1382 14.1939ZM15.4702 13.3729L15.2902 13.5529L16.7045 14.9671L16.8845 14.7871L15.4702 13.3729ZM15.6811 15.2087L15.8611 15.2687L16.4936 13.3713L16.3136 13.3113L15.6811 15.2087ZM15.1803 14.2433L15.1603 14.5033L17.1544 14.6567L17.1744 14.3967L15.1803 14.2433ZM16.1573 15.58H17.9973V13.58H16.1573V15.58ZM18.9973 14.58V10.48H16.9973V14.58H18.9973ZM18.8918 10.0328L18.7718 9.79279L16.9829 10.6872L17.1029 10.9272L18.8918 10.0328Z" fill="url(#paint0_linear_25_67)" mask="url(#path-2-outside-1_25_67)"/>
<defs>
<linearGradient id="paint0_linear_25_67" x1="4.4039" y1="10.0758" x2="23.6101" y2="10.0641" gradientUnits="userSpaceOnUse">
<stop stop-color="#4E9CF4"/>
<stop offset="0.515669" stop-color="#F4584E"/>
<stop offset="1" stop-color="#4E73F4"/>
</linearGradient>
</defs>
</svg>
