<svg width="91" height="91" viewBox="0 0 91 91" fill="none" xmlns="http://www.w3.org/2000/svg">
<path d="M20.9749 19.744C31.4839 19.2202 39.6576 18.9584 45.4962 18.9584C51.3356 18.9584 59.5123 19.2204 70.0264 19.7442C75.7179 20.0278 80.3211 24.4789 80.7959 30.1574C81.2766 35.9094 81.517 40.9754 81.517 45.3556C81.517 49.7895 81.2708 54.9261 80.778 60.7657C80.3048 66.3737 75.8017 70.7927 70.1856 71.16C61.1967 71.7478 52.9669 72.0417 45.4962 72.0417C38.0266 72.0417 29.7998 71.7478 20.8159 71.1603C15.2018 70.7931 10.6995 66.3768 10.224 60.771C9.72497 54.8878 9.47546 49.7494 9.47546 45.3556C9.47546 41.0147 9.719 35.9469 10.2061 30.1521C10.6833 24.4758 15.2856 20.0276 20.9749 19.744Z" fill="#F34646"/>
<path d="M39.8125 37.1757V53.853C39.8125 54.7505 40.5401 55.4779 41.4374 55.4779C41.7561 55.4779 42.0678 55.3843 42.3336 55.2087L54.8415 46.9418C55.5902 46.4469 55.7959 45.4387 55.3011 44.6901C55.1828 44.5111 55.0302 44.3574 54.8521 44.2375L42.3442 35.8272C41.5995 35.3264 40.5898 35.5243 40.0889 36.269C39.9088 36.537 39.8125 36.8527 39.8125 37.1757Z" fill="white"/>
</svg>
